# xmcd
#
# Track frame offsets:
#	150
#	15961
#	25829
#	37712
#	48192
#	56623
#	67180
#	76226
#	86494
#	97315
#	108506
#	118258
#	128684
#	143318
#	153983
#	163715
#	177665
#	188474
#	199294
#	208969
#	222765
#	236149
#	246340
#	257840
#
# Disc length: 3594 seconds
#
# Revision: 0
# Processed by: cddbd v1.5.1PL0 Copyright (c) Steve Scherf et al.
# Submitted via: EasyCDDAExtractor 4.5.0.1
#
DISCID=4f0e0818
DTITLE=Roy Orbison - Sings Vol. 1 (1965-1973 MGM LPs)
DYEAR=2004
DGENRE=Slow Rock
TTITLE0=Ride Away
TTITLE1=You Fool You
TTITLE2=Two Of A Kind
TTITLE3=This Is Your Song
TTITLE4=I' m In A Blue, Blue Mood
TTITLE5=If You Can' t Say Something Nice
TTITLE6=Claudette
TTITLE7=Afraid To Sleep
TTITLE8=Sugar And Honey
TTITLE9=Summer Love
TTITLE10=Big As I Can Dream
TTITLE11=Wondering
TTITLE12=Crawling Back
TTITLE13=It Ain' t No Big Thing
TTITLE14=Time Changes Everything
TTITLE15=This Is My Land
TTITLE16=The Loner
TTITLE17=Maybe
TTITLE18=Breakin' Up Is Breakin' My Heart
TTITLE19=Go Away
TTITLE20=A New Star
TTITLE21=Never
TTITLE22=It Wasn' t Very Long Ago
TTITLE23=Why Hurt The One Who Loves You
EXTD=
EXTT0=
EXTT1=
EXTT2=
EXTT3=
EXTT4=
EXTT5=
EXTT6=
EXTT7=
EXTT8=
EXTT9=
EXTT10=
EXTT11=
EXTT12=
EXTT13=
EXTT14=
EXTT15=
EXTT16=
EXTT17=
EXTT18=
EXTT19=
EXTT20=
EXTT21=
EXTT22=
EXTT23=
PLAYORDER=
